<svg width="24" height="24" xmlns="http://www.w3.org/2000/svg" fill="none">

 <g>
  <title>Layer 1</title>
  <path id="svg_1" stroke-width="2" stroke="#5e81f4" d="m22.4992,10.5525l-1.7957,-0.3787c-0.2199,-0.0489 -0.4031,-0.21989 -0.4642,-0.43976c-0.1954,-0.69628 -0.4642,-1.36813 -0.8184,-1.99112c-0.11,-0.19545 -0.11,-0.43975 0.0244,-0.6352l1.0017,-1.53915c0.1588,-0.24431 0.1221,-0.56191 -0.0855,-0.76957l-1.1849,-1.1849c-0.2077,-0.20766 -0.5253,-0.23209 -0.7696,-0.0855l-1.5391,1.01388c-0.1955,0.12215 -0.4398,0.13437 -0.6353,0.02443c-0.6229,-0.35425 -1.2948,-0.63521 -1.9911,-0.81844c-0.2198,-0.06107 -0.3909,-0.24431 -0.4397,-0.46418l-0.3665,-1.79567c-0.0611,-0.28096 -0.3176,-0.48862 -0.5985,-0.48862l-1.6858,0c-0.2809,0 -0.5375,0.20766 -0.5985,0.48862l-0.3787,1.79567c-0.0489,0.21987 -0.20767,0.40311 -0.42755,0.46418c-0.69628,0.18323 -1.36813,0.46419 -1.99111,0.81844c-0.19545,0.10994 -0.45197,0.10994 -0.63521,-0.02443l-1.53914,-1.00167c-0.24431,-0.1588 -0.56191,-0.12215 -0.76957,0.08551l-1.1849,1.1849c-0.20766,0.20766 -0.24431,0.52526 -0.08551,0.76957l1.00167,1.53914c0.12215,0.19545 0.13437,0.43976 0.02443,0.63521c-0.35425,0.62298 -0.63521,1.29483 -0.81844,1.99111c-0.06107,0.21988 -0.24431,0.37865 -0.46418,0.42755l-1.79567,0.3787c-0.28096,0.061 -0.48862,0.3054 -0.48862,0.5985l0,1.6858c0,0.2931 0.20766,0.5374 0.48862,0.5985l1.79567,0.3787c0.21987,0.0489 0.40311,0.2199 0.46418,0.4397c0.19545,0.6963 0.46419,1.3682 0.81844,1.9912c0.10994,0.1954 0.10994,0.4397 -0.02443,0.6352l-1.00167,1.5391c-0.1588,0.2443 -0.12215,0.5619 0.08551,0.7696l1.1849,1.1849c0.20766,0.2076 0.52526,0.2321 0.76957,0.0855l1.53914,-1.0017c0.19545,-0.1221 0.43976,-0.1343 0.63521,-0.0244c0.62298,0.3542 1.29483,0.6352 1.99111,0.8184c0.21988,0.0611 0.39085,0.2443 0.43975,0.4642l0.3787,1.7957c0.0488,0.2687 0.3054,0.4764 0.5863,0.4764l1.6858,0c0.2931,0 0.5374,-0.2077 0.5985,-0.4886l0.3787,-1.7957c0.0489,-0.2199 0.2199,-0.4031 0.4397,-0.4642c0.6963,-0.1954 1.3682,-0.4642 1.9912,-0.8184c0.1954,-0.11 0.4397,-0.11 0.6352,0.0244l1.5391,1.0017c0.2443,0.1588 0.5619,0.1221 0.7696,-0.0855l1.1849,-1.1849c0.2076,-0.2077 0.2321,-0.5253 0.0855,-0.7696l-1.0017,-1.5391c-0.1221,-0.1955 -0.1343,-0.4398 -0.0244,-0.6353c0.3542,-0.6229 0.6352,-1.2948 0.8184,-1.9911c0.0611,-0.2198 0.2443,-0.3909 0.4642,-0.4397l1.7957,-0.3787c0.2809,-0.0611 0.4886,-0.3054 0.4886,-0.5986l0,-1.6735c-0.0122,-0.2931 -0.2199,-0.5375 -0.5008,-0.5985zm-10.5053,5.106c-2.02777,0 -3.66464,-1.6368 -3.66464,-3.6646c0,-2.02777 1.63687,-3.66464 3.66464,-3.66464c2.0278,0 3.6646,1.63687 3.6646,3.66464c0,2.0278 -1.6368,3.6646 -3.6646,3.6646z"/>
 </g>
</svg>