<svg width="23" height="18" xmlns="http://www.w3.org/2000/svg" fill="none">

 <g>
  <title>Layer 1</title>
  <path id="svg_1" stroke-miterlimit="10" stroke-width="2" stroke="#5e81f4" d="m21.1761,14.9494c0.0123,1.1297 -0.8969,2.0506 -2.0157,2.0506l-16.1604,0c-1.10457,0 -2,-0.8954 -2,-2l0,-12c0,-1.10471 0.89524,-2 1.99967,-2l0.00677,0l0.00677,0l0.00677,0l0.00677,0l0.00678,0l0.00678,0l0.00678,0l0.00678,0l0.00678,0l0.00678,0l0.00679,0l0.00678,0l0.00679,0l0.00679,0l0.00679,0l0.00679,0l0.0068,0l0.00679,0l0.0068,0l0.00679,0l0.0068,0l0.0068,0l0.0068,0l0.00681,0l0.0068,0l0.00681,0l0.0068,0l0.00681,0l0.00681,0l0.00681,0l0.00681,0l0.00682,0l0.00681,0l0.00681,0l0.00682,0l0.00682,0l0.00682,0l0.00681,0l0.00683,0l0.00682,0l0.00682,0l0.00682,0l0.00683,0l0.00682,0l0.00683,0l0.00683,0l0.00682,0l0.00683,0l0.00683,0l0.00683,0l0.00684,0l0.00683,0l0.00683,0l0.00684,0l0.00683,0l0.00684,0l0.00683,0l0.00684,0l0.00684,0l0.00684,0l0.00684,0l0.00684,0l0.00684,0l0.00684,0l0.00684,0l0.00684,0l0.00685,0l0.00684,0l0.00685,0l0.00684,0l0.00685,0l0.00684,0l0.00685,0l0.00685,0l0.00684,0l0.00685,0l0.00685,0l0.00685,0l0.00685,0l0.00685,0l0.00685,0l0.00685,0l0.00685,0l0.00685,0l0.00685,0l0.00685,0l0.00685,0l0.00686,0l0.00685,0l0.00685,0l0.00685,0l0.00686,0l0.00685,0l0.00685,0l0.00686,0l0.00685,0l0.00685,0l0.00686,0l0.00685,0l0.00686,0l0.00685,0l0.00685,0l0.00686,0l0.00685,0l0.00686,0l0.00685,0l0.00685,0l0.00686,0l0.00685,0l0.00686,0l0.00685,0l0.00685,0l0.00686,0l0.00685,0l0.00685,0l0.00686,0l0.00685,0l0.00685,0l0.00685,0l0.00686,0l0.00685,0l0.00685,0l0.00685,0l0.00685,0l0.00685,0l0.00685,0l0.00685,0l0.00685,0l0.00685,0l0.00685,0l0.00685,0l0.00684,0l0.00685,0l0.00685,0l0.00684,0l0.00685,0l0.00684,0l0.00685,0l0.00684,0l0.00685,0l0.00684,0l0.00684,0l0.00684,0l0.00684,0l0.00684,0l0.00684,0l0.00684,0l0.00684,0l0.00684,0l0.00684,0l0.00683,0l0.00684,0l0.00683,0l0.00683,0l0.00684,0l0.00683,0l0.00683,0l0.00683,0l0.00683,0l0.00683,0l0.00683,0l0.00682,0l0.00683,0l0.00682,0l0.00683,0l0.00682,0l0.00682,0l0.00682,0l0.00682,0l0.00682,0l0.00682,0l0.00681,0l0.00682,0l0.00681,0l0.00682,0l0.00681,0l0.00681,0l0.00681,0l0.00681,0l0.0068,0l0.00681,0l0.0068,0l0.00681,0l0.0068,0l0.0068,0l0.0068,0l0.0068,0l0.00679,0l0.0068,0l0.00679,0l0.0068,0l0.00679,0l0.00679,0l0.00678,0l0.00679,0l0.00679,0l0.00678,0l0.00678,0l0.00678,0l0.00678,0l0.00678,0l0.00678,0l0.00677,0l0.00677,0l0.00677,0l0.00677,0l0.00677,0l0.00677,0l0.00676,0l0.00677,0l0.00676,0l0.00676,0l0.00675,0l0.00676,0l0.00675,0l0.00676,0l0.00675,0l0.00674,0l0.00675,0l0.00675,0l0.00674,0l0.00674,0l0.00674,0l0.00674,0l0.00673,0l0.00673,0l0.00673,0l0.00673,0l0.00673,0l0.00673,0l0.00672,0l0.00672,0l0.00672,0l0.00672,0l0.00671,0l0.00671,0l0.00671,0l0.00671,0l0.00671,0l0.0067,0l0.0067,0l0.0067,0l0.0067,0l0.0067,0l0.00669,0l0.00669,0l0.00669,0l0.00668,0l0.00669,0l0.00668,0l0.00668,0l0.00667,0l0.00668,0l0.00667,0l0.00667,0l0.00667,0l0.00666,0l0.00666,0l0.00666,0l0.00666,0l0.00665,0l0.00665,0l0.00665,0l0.00665,0l0.00664,0l0.00664,0l0.00664,0l0.00664,0l0.00663,0l0.00663,0l0.00663,0l0.00662,0l0.00663,0l0.00662,0l0.00661,0l0.00662,0l0.00661,0l0.00661,0l0.0066,0l0.00661,0l0.0066,0l0.00659,0l0.0066,0l0.00659,0l0.00659,0l0.00658,0l0.00659,0l0.00658,0l0.00657,0l0.00658,0l0.00657,0l0.00656,0l0.00657,0l0.00656,0l0.00656,0l0.00655,0l0.00656,0l0.00654,0l0.00655,0l0.00654,0l0.00654,0l0.00654,0l0.00653,0l0.00653,0l0.00653,0l0.00652,0l0.00652,0l0.00652,0l0.00651,0l0.00651,0l0.00651,0l0.0065,0l0.0065,0l0.0065,0l0.00649,0l0.00649,0l0.00649,0l0.00648,0l0.00648,0l0.00648,0l0.00647,0l0.00647,0l0.00647,0l0.00646,0l0.00646,0l0.00645,0l0.00645,0l0.00645,0l0.00644,0l0.00644,0l0.00644,0l0.00643,0l0.00643,0l0.00643,0l0.00642,0l0.00642,0l0.00641,0l0.00641,0l0.00641,0l0.0064,0l0.0064,0l0.0064,0l0.00639,0l0.00639,0l0.00638,0l0.00638,0l0.00638,0l0.00637,0l0.00636,0l0.00637,0l0.00636,0l0.00635,0l0.00636,0l0.00634,0l0.00635,0l0.00634,0l0.00633,0l0.00634,0l0.00632,0l0.00633,0l0.00632,0l0.00631,0l0.00631,0l0.00631,0l0.0063,0l0.0063,0l0.00629,0l0.00629,0l0.00629,0l0.00628,0l0.00628,0l0.00627,0l0.00627,0l0.00626,0l0.00626,0l0.00625,0l0.00625,0l0.00625,0l0.00624,0l0.00624,0l0.00623,0l0.00623,0l0.00623,0l0.00621,0l0.00622,0l0.00621,0l0.00621,0l0.0062,0l0.00619,0l0.00619,0l0.00619,0l0.00618,0l0.00618,0l0.00618,0l0.00616,0l0.00617,0l0.00616,0l0.00615,0l0.00615,0l0.00615,0l0.00614,0l0.00613,0l0.00613,0l0.00613,0l0.00612,0l0.00611,0l0.00611,0l0.00611,0l0.0061,0l0.0061,0l0.00609,0l0.00608,0l0.00609,0l0.00607,0l0.00607,0l0.00607,0l0.00606,0l0.00606,0l0.00605,0l0.00604,0l0.00604,0l0.00604,0l0.00603,0l0.00602,0l0.00602,0l0.00602,0l0.00601,0l0.006,0l0.006,0l0.006,0l0.00598,0l0.00599,0l0.00598,0l0.00597,0l0.00597,0l0.00596,0l0.00595,0l0.00596,0l0.00594,0l0.00594,0l0.00594,0l0.00593,0l0.00592,0l0.00592,0l0.00591,0l0.00591,0l0.0059,0l0.0059,0l0.00589,0l0.00588,0l0.00588,0l0.00588,0l0.00586,0l0.00587,0l0.00585,0l0.00586,0l0.00584,0l0.00584,0l0.00584,0l0.00582,0l0.00583,0l0.00581,0l0.00581,0l0.00581,0l0.0058,0l0.00579,0l0.00579,0l0.00578,0l0.00578,0l0.00577,0l0.00576,0l0.00576,0l0.00575,0l0.00575,0l0.00574,0l0.00573,0l0.00573,0l0.00573,0l0.00571,0l0.00571,0l0.00571,0l0.00569,0l0.0057,0l0.00568,0l0.00568,0l0.00567,0l0.00567,0l0.00566,0l0.00566,0l0.00564,0l0.00565,0l0.00563,0l0.00563,0l0.00563,0l0.00561,0l0.00561,0l0.00561,0l0.0056,0l0.00559,0l0.00558,0l0.00558,0l0.00557,0l0.00557,0l0.00556,0l0.00555,0l0.00555,0l0.00554,0l0.00553,0l0.00553,0l0.00552,0l0.00551,0l0.00551,0c0.4698,0 0.91615,0.16358 1.26027,0.46023c0.33813,0.29149 0.67674,0.58769 1.01855,0.88671l0.00133,0.00117c0.34044,0.29781 0.68407,0.59842 1.02817,0.89506c0.71946,0.6202 1.63576,0.9454 2.56846,0.9454l0.0166,0l0.0166,0l0.0166,0l0.0165,0l0.0165,0l0.0165,0l0.0165,0l0.0164,0l0.0164,0l0.0164,0l0.0164,0l0.0163,0l0.0163,0l0.0163,0l0.0163,0l0.0162,0l0.0162,0l0.0162,0l0.0162,0l0.0161,0l0.0161,0l0.0161,0l0.0161,0l0.016,0l0.016,0l0.016,0l0.016,0l0.0159,0l0.016,0l0.0159,0l0.0158,0l0.0159,0l0.0158,0l0.0158,0l0.0158,0l0.0158,0l0.0157,0l0.0157,0l0.0157,0l0.0157,0l0.0156,0l0.0156,0l0.0156,0l0.0156,0l0.0156,0l0.0155,0l0.0155,0l0.0155,0l0.0155,0l0.0154,0l0.0154,0l0.0154,0l0.0154,0l0.0154,0l0.0153,0l0.0153,0l0.0153,0l0.0153,0l0.0152,0l0.0153,0l0.0152,0l0.0152,0l0.0151,0l0.0152,0l0.0151,0l0.0151,0l0.0151,0l0.0151,0l0.015,0l0.015,0l0.015,0l0.015,0l0.015,0l0.0149,0l0.0149,0l0.0149,0l0.0149,0l0.0149,0l0.0148,0l0.0149,0l0.0148,0l0.0147,0l0.0148,0l0.0148,0l0.0147,0l0.0147,0l0.0147,0l0.0147,0l0.0146,0l0.0146,0l0.0147,0l0.0146,0l0.0145,0l0.0146,0l0.0145,0l0.0146,0l0.0145,0l0.0145,0l0.0144,0l0.0145,0l0.0144,0l0.0144,0l0.0144,0l0.0144,0l0.0144,0l0.0143,0l0.0143,0l0.0144,0l0.0143,0l0.0142,0l0.0143,0l0.0142,0l0.0143,0l0.0142,0l0.0142,0l0.0141,0l0.0142,0l0.0141,0l0.0142,0l0.0141,0l0.0141,0l0.0141,0l0.014,0l0.0141,0l0.014,0l0.014,0l0.014,0l0.014,0l0.014,0l0.0139,0l0.014,0l0.0139,0l0.0139,0l0.0139,0l0.0139,0l0.0138,0l0.0139,0l0.0138,0l0.0138,0l0.0138,0l0.0138,0l0.0138,0l0.0137,0l0.0138,0l0.0137,0l0.0137,0l0.0137,0l0.0137,0l0.0137,0l0.0137,0l0.0136,0l0.0137,0l0.0136,0l0.0136,0l0.0136,0l0.0136,0l0.0135,0l0.0136,0l0.0135,0l0.0135,0l0.0136,0l0.0135,0l0.0135,0l0.0134,0l0.0135,0l0.0134,0l0.0135,0l0.0134,0l0.0134,0l0.0134,0l0.0134,0l0.0134,0l0.0134,0l0.0133,0l0.0134,0l0.0133,0l0.0133,0l0.0133,0l0.0133,0l0.0133,0l0.0133,0l0.0132,0l0.0133,0l0.0132,0l0.0133,0l0.0132,0l0.0132,0l0.0132,0l0.0132,0l0.0132,0l0.0131,0l0.0132,0l0.0131,0l0.0132,0l0.0131,0l0.0131,0l0.0131,0l0.0131,0l0.0131,0l0.0131,0l0.013,0l0.0131,0l0.013,0l0.0131,0l0.013,0l0.013,0l0.013,0l0.013,0l0.013,0l0.013,0l0.013,0l0.0129,0l0.013,0l0.0129,0l0.013,0l0.0129,0l0.0129,0l0.0129,0l0.0129,0l0.0129,0l0.0129,0l0.0129,0l0.0129,0l0.0128,0l0.0129,0l0.0129,0l0.0128,0l0.0128,0l0.0129,0l0.0128,0l0.0128,0l0.0128,0l0.0128,0l0.0128,0l0.0128,0l0.0128,0l0.0127,0l0.0128,0l0.0128,0l0.0127,0l0.0128,0l0.0127,0l0.0127,0l0.0128,0l0.0127,0l0.0127,0l0.0127,0l0.0127,0l0.0127,0l0.0127,0l0.0127,0l0.0127,0l0.0126,0l0.0127,0l0.0127,0l0.0126,0l0.0127,0l0.0126,0l0.0127,0l0.0126,0l0.0126,0l0.0127,0l0.0126,0l0.0126,0l0.0126,0l0.0126,0l0.0127,0l0.0126,0l0.0126,0l0.0126,0l0.0125,0l0.0126,0l0.0126,0l0.0126,0l0.0126,0l0.0125,0l0.0126,0l0.0126,0l0.0125,0l0.0126,0l0.0126,0l0.0125,0l0.0126,0l0.0125,0l0.0126,0l0.0125,0l0.0125,0l0.0126,0l0.0125,0l0.0125,0l0.0126,0l0.0125,0l0.0125,0l0.0125,0l0.0126,0l0.0125,0l0.0125,0l0.0125,0l0.0125,0l0.0125,0l0.0125,0l0.0125,0l0.0126,0l0.0125,0l0.0125,0l0.0125,0l0.0125,0l0.0125,0l0.0125,0l0.0125,0l0.0125,0l0.0125,0l0.0125,0l0.0125,0l0.0125,0l0.0125,0l0.0125,0l0.0124,0l0.0125,0l0.0125,0l0.0125,0l0.0125,0l0.0125,0l0.0125,0l0.0125,0l0.0125,0l0.0125,0l0.0125,0l0.0125,0l0.0125,0l0.0125,0l0.0125,0l0.0125,0l0.0125,0l0.0125,0l0.0125,0l0.0126,0l0.0125,0l0.0125,0l0.0125,0l0.0125,0l0.0125,0l0.0125,0l0.0126,0l0.0125,0l0.0125,0l0.0125,0l0.0126,0l0.0125,0l0.0125,0l0.0126,0l0.0125,0l0.0126,0l0.0125,0l0.0125,0l0.0126,0l0.0125,0l0.0126,0l0.0126,0l0.0125,0l0.0126,0l0.0126,0l0.0125,0l0.0126,0l0.0126,0l0.0126,0l0.0126,0l0.0126,0l0.0126,0l0.0126,0l0.0126,0l0.0126,0l0.0126,0l0.0126,0l0.0126,0l0.0127,0l0.0126,0l0.0126,0l0.0127,0l0.0126,0l0.0127,0l0.0126,0l0.0127,0l0.0126,0l0.0127,0l0.0127,0l0.0127,0l0.0127,0l0.0126,0l0.0127,0l0.0128,0l0.0127,0l0.0127,0l0.0127,0l0.0127,0l0.0128,0l0.0127,0l0.0128,0l0.0127,0l0.0128,0l0.0127,0l0.0128,0l0.0128,0l0.0128,0l0.0128,0l0.0128,0l0.0128,0l0.0128,0l0.0128,0l0.0128,0l0.0129,0l0.0128,0l0.0129,0l0.0128,0l0.0129,0l0.0129,0l0.0129,0l0.0129,0l0.0129,0l0.0129,0l0.0129,0l0.0129,0l0.0129,0l0.013,0l0.0129,0l0.013,0l0.013,0l0.0129,0l0.013,0l0.013,0l0.013,0l0.013,0l0.013,0l0.0131,0l0.013,0l0.0131,0l0.013,0l0.0131,0l0.0131,0l0.0131,0l0.0131,0l0.0131,0l0.0131,0l0.0131,0l0.0131,0l0.0132,0l0.0131,0l0.0132,0l0.0132,0l0.0132,0l0.0132,0l0.0132,0l0.0132,0l0.0133,0l0.0132,0l0.0132,0l0.0133,0l0.0133,0l0.0133,0l0.0133,0l0.0133,0l0.0133,0l0.0134,0l0.0133,0l0.0134,0l0.0133,0l0.0134,0l0.0134,0l0.0134,0l0.0134,0l0.0135,0l0.0134,0l0.0135,0l0.0134,0l0.0135,0l0.0135,0l0.0135,0l0.0135,0l0.0136,0l0.0135,0l0.0136,0l0.0135,0l0.0136,0l0.0136,0l0.0136,0l0.0136,0l0.0137,0l0.0136,0l0.0137,0l0.0137,0l0.0137,0l0.0137,0l0.0137,0l0.0137,0l0.0138,0l0.0137,0l0.0138,0l0.0138,0l0.0138,0l0.0138,0l0.0139,0l0.0138,0l0.0139,0l0.0139,0l0.0139,0l0.0139,0l0.0139,0l0.014,0l0.0139,0l0.014,0l0.014,0l0.014,0c1.1045,0 2.0004,0.89523 2.0013,2.00045c0.0023,2.80269 0.0107,5.94828 0.0412,8.76038z"/>
 </g>
</svg>